<svg id="logo" xmlns="http://www.w3.org/2000/svg" viewBox="0 0 145.99 30.01"><defs><style>.cls-1{fill-rule:evenodd;}</style></defs><title>chain-indonesia_logo-black</title><path id="Fill_1" data-name="Fill 1" class="cls-1" d="M125.91,0a9.05,9.05,0,0,1,1,.05,2,2,0,0,1,.72.22,2.31,2.31,0,0,1,.6.47,8,8,0,0,1,.65.79l9.65,12.67a.34.34,0,0,0,.33.18h.24a.21.21,0,0,0,.21-.2.13.13,0,0,0,0-.06V.57a.51.51,0,0,1,.42-.57h2.88a.5.5,0,0,1,.57.42.38.38,0,0,1,0,.15v14.9a3,3,0,0,1-.57,2.14,2.47,2.47,0,0,1-1.77.56h-2.23a6.7,6.7,0,0,1-1-.05,2.16,2.16,0,0,1-1.32-.66,7.68,7.68,0,0,1-.69-.82L126,4a.44.44,0,0,0-.33-.18h-.24a.21.21,0,0,0-.21.2V17.6a.49.49,0,0,1-.41.57h-2.88a.5.5,0,0,1-.59-.42.76.76,0,0,1,0-.15V2.7a3,3,0,0,1,.57-2.14A2.48,2.48,0,0,1,123.63,0Zm-8.63,0a.51.51,0,0,1,.57.42V17.6a.51.51,0,0,1-.42.57h-3a.52.52,0,0,1-.6-.42.38.38,0,0,1,0-.15V.57a.5.5,0,0,1,.44-.57h3ZM95.08,11.48H104L99.88,3.87a.33.33,0,0,0-.29-.18h-.15a.31.31,0,0,0-.29.18Zm5-11.48a3.21,3.21,0,0,1,1.66.4A4,4,0,0,1,103.09,2l8.59,15.6a.54.54,0,0,1,.06.43.36.36,0,0,1-.38.17h-3.29a.59.59,0,0,1-.6-.34l-1.84-3.35H93.44l-1.78,3.35a.63.63,0,0,1-.6.34H87.69a.39.39,0,0,1-.4-.17.54.54,0,0,1,.06-.43L95.85,2A4.44,4.44,0,0,1,97.13.4,2.64,2.64,0,0,1,98.58,0ZM68.5,0a.51.51,0,0,1,.57.42.38.38,0,0,1,0,.15V7.32H81.21V.57A.49.49,0,0,1,81.62,0h3a.51.51,0,0,1,.59.42.76.76,0,0,1,0,.15v17a.52.52,0,0,1-.45.57h-3a.49.49,0,0,1-.57-.42.38.38,0,0,1,0-.15V10.7H69.07v6.9a.51.51,0,0,1-.42.57h-3a.52.52,0,0,1-.6-.42.75.75,0,0,1,0-.15V.57A.51.51,0,0,1,65.55,0h3ZM61.76,0a.51.51,0,0,1,.57.42.38.38,0,0,1,0,.15V3.12a.51.51,0,0,1-.42.59H50.22a6.75,6.75,0,0,0-1.68.16,2.19,2.19,0,0,0-1,.58,2.29,2.29,0,0,0-.55,1.07,7.12,7.12,0,0,0-.17,1.72v3.68a7.21,7.21,0,0,0,.17,1.73,2.4,2.4,0,0,0,.55,1.09,2.26,2.26,0,0,0,1,.57,7.26,7.26,0,0,0,1.68.17H61.76a.5.5,0,0,1,.57.42V17.6a.51.51,0,0,1-.42.57H50.06a13.41,13.41,0,0,1-3.34-.36,5.19,5.19,0,0,1-2.25-1.18A4.84,4.84,0,0,1,43.2,14.5a11,11,0,0,1-.4-3.18V6.85a10.88,10.88,0,0,1,.4-3.16,4.76,4.76,0,0,1,1.27-2.12A5.11,5.11,0,0,1,46.72.38,12.5,12.5,0,0,1,50.06,0Z" transform="translate(0 0.01)"/><path id="Fill_3" data-name="Fill 3" class="cls-1" d="M140,27.58h3.22l-1.49-2.75a.12.12,0,0,0-.1-.07h-.06a.12.12,0,0,0-.1.07Zm1.82-4.15a1.15,1.15,0,0,1,.6.14,1.65,1.65,0,0,1,.48.57l3.1,5.64a.3.3,0,0,1,0,.16.13.13,0,0,1-.14.06h-1.19a.2.2,0,0,1-.21-.12l-.67-1.21h-4.41l-.64,1.21a.22.22,0,0,1-.22.12H137.3a.14.14,0,0,1-.15-.06.23.23,0,0,1,0-.16l3.07-5.64a1.81,1.81,0,0,1,.46-.57,1,1,0,0,1,.53-.14Zm-9.92,0a.18.18,0,0,1,.21.15v6.21a.19.19,0,0,1-.16.21h-1.06a.18.18,0,0,1-.21-.15.06.06,0,0,1,0-.06V23.64a.17.17,0,0,1,.16-.21h1.06Zm-7,0a.18.18,0,0,1,.21.15v1a.18.18,0,0,1-.16.2h-4.75a.51.51,0,0,0-.39.14.61.61,0,0,0-.11.39v.32a.46.46,0,0,0,.36.52h3.65a1.66,1.66,0,0,1,1.22.42,1.61,1.61,0,0,1,.42,1.2v.75a1.6,1.6,0,0,1-.4,1.11,1.67,1.67,0,0,1-1.26.42h-5.2a.18.18,0,0,1-.21-.16,0,0,0,0,1,0-.05V28.9a.19.19,0,0,1,.16-.21h5a.44.44,0,0,0,.39-.14.57.57,0,0,0,.11-.38v-.39a.46.46,0,0,0-.36-.52.57.57,0,0,0-.13,0h-3.51a1.67,1.67,0,0,1-1.23-.42,1.57,1.57,0,0,1-.41-1.2V25a1.51,1.51,0,0,1,.4-1.11,1.64,1.64,0,0,1,1.25-.42h5Zm-12.11,0a.19.19,0,0,1,.22.15v1a.18.18,0,0,1-.17.2h-4.15a3.05,3.05,0,0,0-.6.06.89.89,0,0,0-.38.21.77.77,0,0,0-.2.39,3.26,3.26,0,0,0-.06.62v.09h5.3a.19.19,0,0,1,.21.15v.8a.18.18,0,0,1-.16.2,0,0,0,0,1,0,0h-5.3v.16a3.18,3.18,0,0,0,.06.62.73.73,0,0,0,.2.39.79.79,0,0,0,.38.21,3.05,3.05,0,0,0,.6.06h4.1a.19.19,0,0,1,.22.15v.95a.2.2,0,0,1-.17.21H108.6a4.94,4.94,0,0,1-1.21-.14,1.91,1.91,0,0,1-.81-.42,1.75,1.75,0,0,1-.46-.77,4.48,4.48,0,0,1-.15-1.15V25.91a4,4,0,0,1,.15-1.15,1.73,1.73,0,0,1,.45-.76,1.86,1.86,0,0,1,.82-.43,4.45,4.45,0,0,1,1.21-.14Zm-18.47,0a2.3,2.3,0,0,1,.37,0,.92.92,0,0,1,.27.08.68.68,0,0,1,.21.17l.24.28,3.48,4.58a.15.15,0,0,0,.13.07H99a.08.08,0,0,0,.08-.07s0,0,0,0v-4.9a.19.19,0,0,1,.16-.21h1a.18.18,0,0,1,.2.16V29a1.14,1.14,0,0,1-.2.78.88.88,0,0,1-.64.2h-.81l-.36,0a.79.79,0,0,1-.26-.08.82.82,0,0,1-.22-.16,2.48,2.48,0,0,1-.25-.3l-3.5-4.58a.16.16,0,0,0-.12-.07h-.08a.09.09,0,0,0-.08.08v4.92a.18.18,0,0,1-.15.21h-1a.2.2,0,0,1-.21-.16V24.4a1.11,1.11,0,0,1,.2-.77.88.88,0,0,1,.64-.2Zm-13.84,4a2.07,2.07,0,0,0,.06.61.84.84,0,0,0,.2.4.74.74,0,0,0,.38.2,2,2,0,0,0,.6.06h2.79a2,2,0,0,0,.6-.06.82.82,0,0,0,.38-.2.84.84,0,0,0,.2-.4,3.08,3.08,0,0,0,.06-.61V26a3.08,3.08,0,0,0-.06-.61.84.84,0,0,0-.2-.4,1,1,0,0,0-.38-.21,3.05,3.05,0,0,0-.6-.06H81.65a3.05,3.05,0,0,0-.6.06.83.83,0,0,0-.38.21.84.84,0,0,0-.2.4,2.07,2.07,0,0,0-.06.61v1.41Zm4.08-4a5,5,0,0,1,1.22.13,2,2,0,0,1,.81.44,1.66,1.66,0,0,1,.46.76,4.07,4.07,0,0,1,.14,1.15v1.61A4,4,0,0,1,87,28.67a1.69,1.69,0,0,1-.46.77,1.82,1.82,0,0,1-.81.43,5,5,0,0,1-1.22.13H81.6a4.93,4.93,0,0,1-1.21-.13,1.82,1.82,0,0,1-.81-.43,1.69,1.69,0,0,1-.46-.77A4,4,0,0,1,79,27.52V25.91a4,4,0,0,1,.15-1.15,1.73,1.73,0,0,1,.45-.76,1.86,1.86,0,0,1,.82-.43,4.45,4.45,0,0,1,1.21-.14h2.89Zm-17,5.14a.13.13,0,0,0,.1.13h3.1a2.65,2.65,0,0,0,.69-.07,1,1,0,0,0,.46-.24,1,1,0,0,0,.25-.45,2.77,2.77,0,0,0,.07-.7v-1a2.65,2.65,0,0,0-.07-.69,1,1,0,0,0-.25-.45,1,1,0,0,0-.46-.25,2.65,2.65,0,0,0-.69-.07H67.6a.1.1,0,0,0-.12.1s0,0,0,0v3.71Zm3.24-5.14a4.77,4.77,0,0,1,1.3.15,2.14,2.14,0,0,1,.89.48,1.93,1.93,0,0,1,.51.83,3.94,3.94,0,0,1,.17,1.19v1.27a4,4,0,0,1-.17,1.19,2,2,0,0,1-.51.83,2.26,2.26,0,0,1-.89.48,4.77,4.77,0,0,1-1.3.15H66.32a.25.25,0,0,1-.28-.21.08.08,0,0,1,0-.07v-6a.24.24,0,0,1,.21-.28h4.46Zm-16.47,0a2.42,2.42,0,0,1,.38,0,.79.79,0,0,1,.26.08.68.68,0,0,1,.21.17,2.09,2.09,0,0,1,.24.28l3.49,4.58a.12.12,0,0,0,.12.07H59a.08.08,0,0,0,.08-.07V23.64a.18.18,0,0,1,.15-.21h1a.17.17,0,0,1,.2.15.06.06,0,0,1,0,.06V29a1.07,1.07,0,0,1-.2.78.88.88,0,0,1-.64.2h-.8l-.37,0a.91.91,0,0,1-.48-.24,2.48,2.48,0,0,1-.25-.3l-3.5-4.58a.14.14,0,0,0-.12-.06h-.08s-.07,0-.07.07v4.92a.2.2,0,0,1-.16.21h-1a.21.21,0,0,1-.22-.16V24.4a1.07,1.07,0,0,1,.21-.77.84.84,0,0,1,.63-.2Zm-7.42,0a.18.18,0,0,1,.21.15v6.21a.19.19,0,0,1-.16.21H45.81a.19.19,0,0,1-.22-.15V23.64a.18.18,0,0,1,.16-.21h1.07Z" transform="translate(0 0.01)"/><path id="Fill_6" data-name="Fill 6" class="cls-1" d="M30.15,18.74v1.54a16.41,16.41,0,0,1-.29,3.7,4.68,4.68,0,0,1-.94,1.86,3.34,3.34,0,0,1-1.7,1,15.21,15.21,0,0,1-3.69.3h-7a14.93,14.93,0,0,1-3.65-.3,3.38,3.38,0,0,1-1.69-1A4.68,4.68,0,0,1,10.23,24a4,4,0,0,1-.09-.4H7.49A7.7,7.7,0,0,0,9.22,28q1.86,2,6.63,2h8.39q4.76,0,6.62-2c1.25-1.31,1.87-3.64,1.88-7V17.93q0-5.07-1.85-7C29.66,9.64,27.45,9,24.24,9H15.85q-4.77,0-6.63,2a7.71,7.71,0,0,0-1.73,4.45h2.65c0-.14.06-.27.09-.38a4.57,4.57,0,0,1,.94-1.88,3.24,3.24,0,0,1,1.65-1,15.77,15.77,0,0,1,3.69-.29h7a15.25,15.25,0,0,1,3.69.3,3.34,3.34,0,0,1,1.7,1A4.6,4.6,0,0,1,29.87,15a16.48,16.48,0,0,1,.27,3.71m-27.55-9v1.53A16.41,16.41,0,0,0,2.88,15a4.66,4.66,0,0,0,.94,1.87,3.49,3.49,0,0,0,1.7,1,16.24,16.24,0,0,0,3.68.3h7a15.93,15.93,0,0,0,3.65-.3,3.41,3.41,0,0,0,1.69-1,4.55,4.55,0,0,0,1-1.87c0-.12.06-.25.09-.4h2.64a7.66,7.66,0,0,1-1.72,4.46c-1.24,1.32-3.46,2-6.63,2H8.5q-4.75,0-6.62-2C.63,17.74,0,15.41,0,12.07V8.94c0-3.37.62-5.71,1.85-7S5.3,0,8.5,0h8.39c3.18,0,5.4.66,6.64,2a7.76,7.76,0,0,1,1.72,4.46H22.59a3.14,3.14,0,0,0-.08-.38,4.51,4.51,0,0,0-1-1.89,3.22,3.22,0,0,0-1.64-1,15.29,15.29,0,0,0-3.69-.29h-7a15.21,15.21,0,0,0-3.69.3,3.3,3.3,0,0,0-1.7,1A4.56,4.56,0,0,0,2.87,6a17.19,17.19,0,0,0-.28,3.72" transform="translate(0 0.01)"/></svg>