<?xml version="1.0" encoding="utf-8"?>
<!-- Generator: Adobe Illustrator 23.1.1, SVG Export Plug-In . SVG Version: 6.00 Build 0)  -->
<svg version="1.1" id="logo" xmlns="http://www.w3.org/2000/svg" xmlns:xlink="http://www.w3.org/1999/xlink" x="0px" y="0px"
	 viewBox="0 0 146 30" style="enable-background:new 0 0 146 30;" xml:space="preserve">
<style type="text/css">
	.st0{fill-rule:evenodd;clip-rule:evenodd;fill:#0070B1;}
</style>
<path id="Fill_1" class="st0" d="M125.9,0c0.3,0,0.7,0,1,0.1c0.3,0,0.5,0.1,0.7,0.2c0.2,0.1,0.4,0.3,0.6,0.5
	c0.2,0.3,0.4,0.5,0.6,0.8l9.6,12.7c0.1,0.1,0.2,0.2,0.3,0.2h0.2c0.1,0,0.2-0.1,0.2-0.2c0,0,0,0,0-0.1V0.6c0-0.3,0.1-0.5,0.4-0.6
	c0.1,0,0.1,0,0.2,0h2.7c0.3,0,0.5,0.1,0.6,0.4c0,0.1,0,0.1,0,0.2v14.9c0.1,0.8-0.1,1.5-0.6,2.1c-0.5,0.4-1.1,0.6-1.8,0.6h-2.2
	c-0.3,0-0.7,0-1-0.1c-0.2,0-0.5-0.1-0.7-0.2c-0.2-0.1-0.4-0.3-0.6-0.5c-0.2-0.3-0.5-0.5-0.7-0.8L126,4c-0.1-0.1-0.2-0.2-0.3-0.2
	h-0.2c-0.1,0-0.2,0.1-0.2,0.2c0,0,0,0,0,0.1v13.6c0,0.3-0.1,0.5-0.4,0.6c-0.1,0-0.1,0-0.2,0h-2.7c-0.3,0-0.5-0.1-0.6-0.4
	c0,0,0-0.1,0-0.1V2.7c-0.1-0.8,0.1-1.5,0.6-2.1c0.5-0.4,1.1-0.6,1.8-0.6C123.6,0,125.9,0,125.9,0z M117.3,0c0.3,0,0.5,0.1,0.6,0.4
	c0,0.1,0,0.1,0,0.2v17c0,0.3-0.1,0.5-0.4,0.6c-0.1,0-0.1,0-0.2,0h-2.8c-0.3,0-0.5-0.1-0.6-0.4c0,0,0-0.1,0-0.2v-17
	c0-0.3,0.2-0.5,0.4-0.6c0.1,0,0.1,0,0.2,0H117.3z M95.1,11.5h8.9l-4.1-7.6c-0.1-0.1-0.2-0.2-0.3-0.2h-0.2c-0.1,0-0.2,0.1-0.3,0.2
	L95.1,11.5z M100.1,0c0.6,0,1.2,0.1,1.7,0.4c0.6,0.4,1,0.9,1.3,1.6l8.6,15.6c0.1,0.1,0.1,0.3,0.1,0.4c-0.1,0.1-0.2,0.2-0.4,0.2h-3.3
	c-0.3,0-0.5-0.1-0.6-0.3l-1.8-3.3H93.4l-1.8,3.3c-0.1,0.2-0.4,0.4-0.6,0.3h-3.4c-0.2,0-0.3,0-0.4-0.2c0-0.1,0-0.3,0.1-0.4L95.9,2
	c0.3-0.6,0.7-1.2,1.3-1.6C97.6,0.1,98.1,0,98.6,0H100.1z M68.5,0c0.3,0,0.5,0.1,0.6,0.4c0,0.1,0,0.1,0,0.2v6.7h12.1V0.6
	c0-0.3,0.1-0.5,0.4-0.6c0.1,0,0.1,0,0.2,0h2.8c0.3,0,0.5,0.1,0.6,0.4c0,0.1,0,0.1,0,0.2v17c0,0.3-0.2,0.5-0.4,0.6
	c-0.1,0-0.1,0-0.2,0h-2.8c-0.3,0-0.5-0.1-0.6-0.4c0-0.1,0-0.1,0-0.2v-6.9H69.1v6.9c0,0.3-0.1,0.5-0.4,0.6c-0.1,0-0.1,0-0.2,0h-2.8
	c-0.3,0-0.5-0.1-0.6-0.4c0,0,0-0.1,0-0.2v-17c0-0.3,0.2-0.5,0.4-0.6c0.1,0,0.1,0,0.2,0H68.5z M61.8,0c0.3,0,0.5,0.1,0.6,0.4
	c0,0.1,0,0.1,0,0.2v2.5c0,0.3-0.1,0.5-0.4,0.6c0,0-0.1,0-0.1,0H50.2c-0.6,0-1.1,0-1.7,0.2c-0.4,0.1-0.8,0.3-1,0.6
	c-0.3,0.3-0.5,0.7-0.6,1.1c-0.1,0.6-0.2,1.1-0.2,1.7v3.7c0,0.6,0,1.2,0.2,1.7c0.1,0.4,0.3,0.8,0.6,1.1c0.3,0.3,0.7,0.5,1,0.6
	c0.5,0.1,1.1,0.2,1.7,0.2h11.5c0.3,0,0.5,0.1,0.6,0.4c0,0.1,0,0.1,0,0.2v2.5c0,0.3-0.1,0.5-0.4,0.6c-0.1,0-0.1,0-0.2,0H50.1
	c-1.1,0-2.2-0.1-3.3-0.4c-0.8-0.2-1.6-0.6-2.2-1.2c-0.6-0.6-1-1.3-1.3-2.1c-0.3-1-0.4-2.1-0.4-3.2V6.9c0-1.1,0.1-2.1,0.4-3.2
	c0.2-0.8,0.7-1.5,1.3-2.1c0.6-0.6,1.4-1,2.2-1.2C47.8,0.1,48.9,0,50.1,0H61.8z"/>
<path id="Fill_3" class="st0" d="M140,27.6h3.2l-1.5-2.8c0,0-0.1-0.1-0.1-0.1h-0.1c0,0-0.1,0-0.1,0.1L140,27.6z M141.8,23.4
	c0.2,0,0.4,0,0.6,0.1c0.2,0.1,0.4,0.3,0.5,0.6l3.1,5.6c0,0,0,0.1,0,0.2c0,0-0.1,0.1-0.1,0.1h-1.2c-0.1,0-0.2,0-0.2-0.1l-0.7-1.2
	h-4.4l-0.6,1.2c0,0.1-0.1,0.1-0.2,0.1h-1.2c-0.1,0-0.1,0-0.1-0.1c0-0.1,0-0.1,0-0.2l3.1-5.6c0.1-0.2,0.3-0.4,0.5-0.6
	c0.2-0.1,0.3-0.2,0.5-0.1H141.8L141.8,23.4z M131.9,23.4c0.1,0,0.2,0.1,0.2,0.2c0,0,0,0,0,0.1v6.2c0,0.1-0.1,0.2-0.2,0.2
	c0,0,0,0-0.1,0h-1c-0.1,0-0.2-0.1-0.2-0.2c0,0,0,0,0-0.1v-6.2c0-0.1,0.1-0.2,0.2-0.2c0,0,0,0,0.1,0
	C130.9,23.4,131.9,23.4,131.9,23.4z M124.8,23.4c0.1,0,0.2,0.1,0.2,0.2c0,0,0,0,0,0.1v0.9c0,0.1-0.1,0.2-0.2,0.2c0,0,0,0-0.1,0h-4.7
	c-0.1,0-0.3,0-0.4,0.1c-0.1,0.1-0.1,0.2-0.1,0.4v0.3c0,0.2,0.1,0.5,0.4,0.5c0,0,0.1,0,0.1,0h3.5c0.4,0,0.9,0.1,1.2,0.4
	c0.3,0.3,0.4,0.8,0.4,1.2v0.8c0,0.4-0.1,0.8-0.4,1.1c-0.3,0.3-0.8,0.5-1.3,0.4h-5.2c-0.1,0-0.2-0.1-0.2-0.2c0,0,0,0,0-0.1v-0.9
	c0-0.1,0.1-0.2,0.2-0.2c0,0,0,0,0.1,0h4.9c0.1,0,0.3,0,0.4-0.1c0.1-0.1,0.1-0.2,0.1-0.4v-0.4c0-0.2-0.1-0.5-0.4-0.5c0,0-0.1,0-0.1,0
	h-3.5c-0.4,0-0.9-0.1-1.2-0.4c-0.3-0.3-0.4-0.8-0.4-1.2V25c0-0.4,0.1-0.8,0.4-1.1c0.3-0.3,0.8-0.5,1.3-0.4L124.8,23.4L124.8,23.4z
	 M112.7,23.4c0.1,0,0.2,0.1,0.2,0.2c0,0,0,0,0,0.1v0.9c0,0.1-0.1,0.2-0.2,0.2c0,0,0,0-0.1,0h-4.1c-0.2,0-0.4,0-0.6,0.1
	c-0.1,0-0.3,0.1-0.4,0.2c-0.1,0.1-0.2,0.2-0.2,0.4c0,0.2-0.1,0.4-0.1,0.6v0.1h5.3c0.1,0,0.2,0.1,0.2,0.2c0,0,0,0,0,0.1V27
	c0,0.1-0.1,0.2-0.2,0.2c0,0,0,0-0.1,0h-5.3v0.2c0,0.2,0,0.4,0.1,0.6c0,0.1,0.1,0.3,0.2,0.4c0.1,0.1,0.2,0.2,0.4,0.2
	c0.2,0,0.4,0.1,0.6,0.1h4.1c0.1,0,0.2,0.1,0.2,0.2c0,0,0,0,0,0.1v0.9c0,0.1-0.1,0.2-0.2,0.2c0,0,0,0-0.1,0h-4.1
	c-0.4,0-0.8,0-1.2-0.1c-0.3-0.1-0.6-0.2-0.8-0.4c-0.2-0.2-0.4-0.5-0.5-0.8c-0.1-0.4-0.2-0.8-0.1-1.1v-1.6c0-0.4,0-0.8,0.1-1.1
	c0.1-0.3,0.2-0.6,0.5-0.8c0.2-0.2,0.5-0.4,0.8-0.4c0.4-0.1,0.8-0.1,1.2-0.1L112.7,23.4L112.7,23.4z M94.2,23.4c0.1,0,0.3,0,0.4,0
	c0.1,0,0.2,0,0.3,0.1c0.1,0,0.2,0.1,0.2,0.2c0.1,0.1,0.2,0.2,0.2,0.3l3.5,4.6c0,0,0.1,0.1,0.1,0.1H99c0,0,0.1,0,0.1-0.1c0,0,0,0,0,0
	v-4.9c0-0.1,0.1-0.2,0.2-0.2c0,0,0,0,0.1,0h1c0.1,0,0.2,0.1,0.2,0.2c0,0,0,0,0,0V29c0,0.3,0,0.6-0.2,0.8c-0.2,0.1-0.4,0.2-0.6,0.2
	h-0.8c-0.1,0-0.2,0-0.4,0c-0.1,0-0.2,0-0.3-0.1c-0.1,0-0.2-0.1-0.2-0.2c-0.1-0.1-0.2-0.2-0.2-0.3l-3.5-4.6c0,0-0.1-0.1-0.1-0.1h-0.1
	c0,0-0.1,0-0.1,0.1c0,0,0,0,0,0v4.9c0,0.1-0.1,0.2-0.2,0.2c0,0,0,0-0.1,0h-1c-0.1,0-0.2-0.1-0.2-0.2c0,0,0,0,0-0.1v-5.4
	c0-0.3,0-0.6,0.2-0.8c0.2-0.1,0.4-0.2,0.6-0.2L94.2,23.4L94.2,23.4z M80.4,27.4c0,0.2,0,0.4,0.1,0.6c0,0.1,0.1,0.3,0.2,0.4
	c0.1,0.1,0.2,0.2,0.4,0.2c0.2,0,0.4,0.1,0.6,0.1h2.8c0.2,0,0.4,0,0.6-0.1c0.1,0,0.3-0.1,0.4-0.2c0.1-0.1,0.2-0.2,0.2-0.4
	c0-0.2,0.1-0.4,0.1-0.6V26c0-0.2,0-0.4-0.1-0.6c0-0.1-0.1-0.3-0.2-0.4c-0.1-0.1-0.2-0.2-0.4-0.2c-0.2,0-0.4-0.1-0.6-0.1h-2.8
	c-0.2,0-0.4,0-0.6,0.1c-0.1,0-0.3,0.1-0.4,0.2c-0.1,0.1-0.2,0.2-0.2,0.4c0,0.2-0.1,0.4-0.1,0.6L80.4,27.4L80.4,27.4z M84.5,23.4
	c0.4,0,0.8,0,1.2,0.1c0.3,0.1,0.6,0.2,0.8,0.4c0.2,0.2,0.4,0.5,0.5,0.8c0.1,0.4,0.1,0.8,0.1,1.1v1.6c0,0.4,0,0.8-0.1,1.1
	c-0.1,0.3-0.2,0.6-0.5,0.8c-0.2,0.2-0.5,0.4-0.8,0.4C85.3,30,84.9,30,84.5,30h-2.9c-0.4,0-0.8,0-1.2-0.1c-0.3-0.1-0.6-0.2-0.8-0.4
	c-0.2-0.2-0.4-0.5-0.5-0.8C79,28.3,79,27.9,79,27.5v-1.6c0-0.4,0-0.8,0.1-1.1c0.1-0.3,0.2-0.6,0.5-0.8c0.2-0.2,0.5-0.4,0.8-0.4
	c0.4-0.1,0.8-0.1,1.2-0.1L84.5,23.4L84.5,23.4z M67.5,28.6c0,0.1,0,0.1,0.1,0.1c0,0,0,0,0,0h3.1c0.2,0,0.5,0,0.7-0.1
	c0.2,0,0.3-0.1,0.5-0.2c0.1-0.1,0.2-0.3,0.2-0.5c0.1-0.2,0.1-0.5,0.1-0.7v-1c0-0.2,0-0.5-0.1-0.7c0-0.2-0.1-0.3-0.2-0.5
	c-0.1-0.1-0.3-0.2-0.5-0.2c-0.2-0.1-0.5-0.1-0.7-0.1h-3.1c-0.1,0-0.1,0-0.1,0.1c0,0,0,0,0,0L67.5,28.6L67.5,28.6z M70.7,23.4
	c0.4,0,0.9,0,1.3,0.2c0.3,0.1,0.6,0.2,0.9,0.5c0.2,0.2,0.4,0.5,0.5,0.8c0.1,0.4,0.2,0.8,0.2,1.2v1.3c0,0.4,0,0.8-0.2,1.2
	c-0.1,0.3-0.3,0.6-0.5,0.8c-0.3,0.2-0.6,0.4-0.9,0.5C71.6,30,71.1,30,70.7,30h-4.4c-0.1,0-0.3-0.1-0.3-0.2c0,0,0,0,0-0.1v-6
	c0-0.1,0.1-0.3,0.2-0.3c0,0,0,0,0.1,0H70.7L70.7,23.4z M54.2,23.4c0.1,0,0.3,0,0.4,0c0.1,0,0.2,0,0.3,0.1c0.1,0,0.2,0.1,0.2,0.2
	c0.1,0.1,0.2,0.2,0.2,0.3l3.5,4.6c0,0,0.1,0.1,0.1,0.1H59c0,0,0.1,0,0.1-0.1c0,0,0,0,0,0v-4.9c0-0.1,0.1-0.2,0.2-0.2c0,0,0,0,0.1,0
	h1c0.1,0,0.2,0.1,0.2,0.2c0,0,0,0,0,0.1V29c0,0.3,0,0.6-0.2,0.8c-0.2,0.1-0.4,0.2-0.6,0.2h-0.8c-0.1,0-0.2,0-0.4,0
	c-0.1,0-0.2,0-0.3-0.1c-0.1,0-0.2-0.1-0.2-0.2c-0.1-0.1-0.2-0.2-0.2-0.3l-3.5-4.6c0,0-0.1-0.1-0.1-0.1h-0.1c0,0-0.1,0-0.1,0.1
	c0,0,0,0,0,0v4.9c0,0.1-0.1,0.2-0.2,0.2c0,0,0,0-0.1,0h-1c-0.1,0-0.2-0.1-0.2-0.2c0,0,0,0,0-0.1v-5.4c0-0.3,0-0.6,0.2-0.8
	c0.2-0.1,0.4-0.2,0.6-0.2L54.2,23.4L54.2,23.4z M46.8,23.4c0.1,0,0.2,0.1,0.2,0.2c0,0,0,0,0,0.1v6.2c0,0.1-0.1,0.2-0.2,0.2
	c0,0,0,0-0.1,0h-1c-0.1,0-0.2-0.1-0.2-0.2c0,0,0,0,0-0.1v-6.2c0-0.1,0.1-0.2,0.2-0.2c0,0,0,0,0.1,0H46.8L46.8,23.4z"/>
<path id="Fill_6" class="st0" d="M30.1,18.7v1.5c0,1.2-0.1,2.5-0.3,3.7c-0.2,0.7-0.5,1.3-0.9,1.9c-0.4,0.5-1,0.9-1.7,1
	c-1.2,0.2-2.4,0.3-3.7,0.3h-7c-1.2,0-2.5-0.1-3.7-0.3c-0.7-0.2-1.2-0.5-1.7-1c-0.5-0.5-0.8-1.2-0.9-1.9c0-0.1-0.1-0.3-0.1-0.4H7.5
	c0.1,1.6,0.7,3.2,1.7,4.5c1.2,1.3,3.5,2,6.6,2h8.4c3.2,0,5.4-0.7,6.6-2c1.2-1.3,1.9-3.6,1.9-7v-3.1c0-3.4-0.6-5.7-1.8-7
	S27.4,9,24.2,9h-8.4c-3.2,0-5.4,0.7-6.6,2c-1,1.3-1.6,2.8-1.7,4.5h2.7c0-0.1,0.1-0.3,0.1-0.4c0.2-0.7,0.5-1.3,0.9-1.9
	c0.4-0.5,1-0.8,1.6-1c1.2-0.2,2.5-0.3,3.7-0.3h7c1.2,0,2.5,0.1,3.7,0.3c0.7,0.2,1.2,0.5,1.7,1c0.4,0.5,0.8,1.2,0.9,1.8
	C30.1,16.3,30.2,17.5,30.1,18.7 M2.6,9.8v1.5c0,1.2,0.1,2.5,0.3,3.7c0.2,0.7,0.5,1.3,0.9,1.9c0.5,0.5,1,0.9,1.7,1
	c1.2,0.2,2.4,0.3,3.7,0.3h7c1.2,0,2.5-0.1,3.7-0.3c0.7-0.2,1.2-0.5,1.7-1c0.5-0.5,0.8-1.2,0.9-1.9c0-0.1,0.1-0.3,0.1-0.4h2.6
	c-0.1,1.6-0.7,3.2-1.7,4.5c-1.2,1.3-3.5,2-6.6,2H8.5c-3.2,0-5.4-0.7-6.6-2S0,15.4,0,12.1V8.9c0-3.4,0.6-5.7,1.8-7S5.3,0,8.5,0h8.4
	c3.2,0,5.4,0.7,6.6,2c1,1.3,1.6,2.8,1.7,4.5h-2.7c0-0.1-0.1-0.3-0.1-0.4c-0.2-0.7-0.5-1.3-0.9-1.9c-0.4-0.5-1-0.8-1.6-1
	c-1.2-0.2-2.5-0.3-3.7-0.3h-7c-1.2,0-2.5,0.1-3.7,0.3c-0.7,0.2-1.2,0.5-1.7,1C3.3,4.7,3,5.4,2.9,6C2.6,7.3,2.5,8.5,2.6,9.8"/>
</svg>
